<?xml version="1.0" standalone="no"?>
<!DOCTYPE svg PUBLIC "-//W3C//DTD SVG 1.0//EN" "http://www.w3.org/TR/2001/REC-SVG-20010904/DTD/svg10.dtd">
<svg xmlns="http://www.w3.org/2000/svg" xmlns:xlink="http://www.w3.org/1999/xlink" id="body_1" width="747" height="750">

<defs>
    <linearGradient transform="matrix(1 0 0 1 0 0)"  id="1" x1="609.77" y1="1190.114" x2="609.77" y2="21.084">
        <stop stop-color="#20B038" offset="0%"/>
        <stop stop-color="#60D66A" offset="100%"/>
    </linearGradient>
</defs>

<g transform="matrix(0.6122369 0 0 0.6122369 0.17417213 -0)">
	<g>
	</g>
    <path d="M1041.858 178.02C 927.206 63.289 774.753 0.07 612.325 0C 277.617 0 5.232 272.298 5.098 606.991C 5.059 713.97705 33.013 818.411 86.145996 910.46704L86.145996 910.46704L0 1225.016L321.898 1140.61C 410.587 1188.978 510.445 1214.465 612.06396 1214.506L612.06396 1214.506L612.32196 1214.506L612.32495 1214.506C 946.97894 1214.506 1219.405 942.16 1219.5469 607.483C 1219.6029 445.27496 1156.4949 292.75897 1041.8579 178.01996L1041.8579 178.01996L1041.858 178.02zM612.3251 1111.983L612.12805 1111.983C 521.55005 1111.935 432.72607 1087.6171 355.25006 1041.644L355.25006 1041.644L336.81207 1030.714L145.79108 1080.797L196.79108 894.621L184.77808 875.534C 134.25308 795.198 107.58008 702.359 107.61807 607.03C 107.72907 328.84402 334.12506 102.52704 612.5161 102.52704C 747.3281 102.58304 874.03516 155.13104 969.3301 250.49203C 1064.6191 345.85205 1117.0581 472.62006 1117.0181 607.44006C 1116.9 885.6351 890.4961 1111.983 612.3251 1111.983z" stroke="none" fill="#E0E0E0" fill-rule="nonzero" />
	<g>
	</g>
    <path d="M27.875 1190.114L110.086 889.934C 59.366997 802.08203 32.695 702.411 32.726997 600.33203C 32.859997 280.93402 292.805 21.082031 612.196 21.082031C 767.212 21.15203 912.704 81.48003 1022.094 190.97304C 1131.508 300.46503 1191.727 446.00403 1191.6641 600.78503C 1191.531 920.19104 931.57007 1180.066 612.21906 1180.066C 612.19604 1180.066 612.23505 1180.066 612.21906 1180.066L612.21906 1180.066L611.96106 1180.066C 514.9841 1180.035 419.69507 1155.691 335.06305 1109.566L335.06305 1109.566L27.875061 1190.114L27.875 1190.114z" stroke="none" fill="url(#1)" />
	<g>
	</g>
    <path d="M462.273 349.294C 451.039 324.31702 439.211 323.81702 428.523 323.38C 419.781 323.005 409.773 323.028 399.781 323.028C 389.781 323.028 373.531 326.786 359.789 341.794C 346.039 356.802 307.289 393.083 307.289 466.872C 307.289 540.669 361.039 611.974 368.531 621.989C 376.031 631.989 472.289 788.255 624.734 848.372C 751.429 898.333 777.211 888.395 804.711 885.895C 832.211 883.395 893.445 849.622 905.945 814.598C 918.445 779.58203 918.445 749.567 914.695 743.293C 910.945 737.043 900.945 733.293 885.945 725.793C 870.945 718.293 797.211 682.004 783.461 677.004C 773.461 692.004 744.734 725.77704 735.984 735.77704C 727.234 745.80005 718.484 747.05005 703.484 739.55005C 688.484 732.02704 640.179 716.20605 582.875 665.11206C 538.289 625.36206 508.187 576.26807 499.437 561.25305C 490.687 546.25305 498.49902 538.12805 506.023 530.65106C 512.757 523.93207 521.023 513.14307 528.523 504.38507C 536.007 495.62708 538.507 489.37708 543.507 479.37708C 548.507 469.36108 546.007 460.60406 542.257 453.10406C 538.507 445.60406 509.359 371.43408 496.023 341.77808L496.023 341.77808L462.273 349.294z" stroke="none" fill="#FFFFFF" fill-rule="nonzero" />
	<g>
	</g>
    <path d="M1036.898 176.091C 923.562 62.677 772.859 0.185 612.297 0.114C 281.43 0.114 12.172 269.286 12.039 600.137C 12 705.896 39.633 809.13 92.156 900.13L92.156 900.13L7 1211.067L325.203 1127.629C 412.875 1175.441 511.586 1200.6371 612.039 1200.676L612.039 1200.676L612.294 1200.676L612.297 1200.676C 943.109 1200.676 1212.406 931.45703 1212.547 600.62103C 1212.602 440.278 1150.219 289.51303 1036.898 176.09103L1036.898 176.09103L1036.898 176.091zM612.29694 1099.333L612.1019 1099.333C 522.5629 1099.286 434.75793 1075.247 358.17194 1029.802L358.17194 1029.802L339.94495 1018.997L151.11694 1068.505L201.53094 884.466L189.65594 865.599C 139.71094 786.185 113.34395 694.411 113.38294 600.177C 113.49194 325.185 337.28894 101.466 612.4849 101.466C 745.7509 101.521 871.0009 153.466 965.2039 247.73201C 1059.3989 341.99802 1111.2349 467.31 1111.1959 600.584C 1111.0779 875.583 887.27295 1099.333 612.29694 1099.333z" stroke="none" fill="#FFFFFF" fill-rule="nonzero" />
</g>
</svg>